<?xml version="1.0" standalone="no"?>
<!DOCTYPE svg PUBLIC "-//W3C//DTD SVG 20010904//EN"
 "http://www.w3.org/TR/2001/REC-SVG-20010904/DTD/svg10.dtd">
<svg version="1.0" xmlns="http://www.w3.org/2000/svg"
 width="192.000000pt" height="192.000000pt" viewBox="0 0 192.000000 192.000000"
 preserveAspectRatio="xMidYMid meet">
<metadata>
Created by potrace 1.14, written by Peter Selinger 2001-2017
</metadata>
<g transform="translate(0.000000,192.000000) scale(0.100000,-0.100000)"
fill="#000000" stroke="none">
<path d="M0 960 l0 -960 960 0 960 0 0 960 0 960 -960 0 -960 0 0 -960z m1660
627 c52 -29 96 -60 98 -69 2 -9 -92 -194 -208 -412 -206 -386 -211 -396 -197
-423 27 -51 110 -157 184 -235 83 -88 93 -121 47 -157 -26 -21 -37 -21 -453
-21 -318 1 -432 4 -448 13 -46 26 -165 141 -227 221 -198 252 -306 558 -306
862 0 77 3 95 21 118 l20 26 465 0 c439 0 465 -1 483 -19 15 -15 19 -40 24
-157 5 -129 21 -249 36 -266 3 -4 76 123 161 283 140 263 156 289 180 289 14
0 68 -24 120 -53z"/>
<path d="M1527 1528 c-55 -96 -437 -818 -437 -826 0 -8 130 -76 135 -70 11 14
455 857 455 864 0 8 -45 34 -122 72 -3 2 -18 -16 -31 -40z"/>
<path d="M215 1420 c-9 -43 3 -187 26 -302 54 -274 202 -542 396 -717 l68 -61
424 0 424 0 -75 79 c-42 43 -98 111 -126 150 l-51 72 -19 -38 c-25 -47 -37
-58 -140 -122 -50 -31 -93 -51 -105 -49 -21 3 -22 10 -28 118 l-6 115 75 152
76 153 -17 72 c-27 120 -37 198 -37 306 l0 102 -439 0 -439 0 -7 -30z m669
-210 c113 -35 172 -104 164 -192 -6 -55 -27 -84 -77 -105 -30 -13 -45 -13
-127 3 -77 15 -100 15 -134 5 -86 -26 -138 -106 -120 -185 10 -45 16 -54 53
-77 l31 -18 21 42 c13 27 33 49 57 62 l37 20 28 -21 c54 -40 38 -118 -32 -151
-38 -18 -40 -24 -25 -54 22 -41 98 -61 142 -38 18 10 24 8 39 -12 27 -35 5
-52 -73 -56 -86 -5 -133 22 -168 94 -19 39 -32 53 -53 58 -64 15 -127 106
-127 184 0 81 60 165 141 201 54 23 77 23 240 4 51 -6 58 -4 73 17 24 35 20
64 -14 103 -45 50 -113 71 -230 70 -80 0 -106 -5 -164 -29 -67 -27 -70 -27
-83 -9 -18 25 -13 36 31 57 105 50 258 61 370 27z"/>
<path d="M760 675 c-7 -9 -10 -18 -7 -22 8 -7 37 15 37 28 0 14 -16 11 -30 -6z"/>
<path d="M1070 570 l0 -59 50 31 c27 17 47 35 44 39 -5 9 -78 49 -89 49 -3 0
-5 -27 -5 -60z"/>
</g>
</svg>
