<?xml version="1.0" encoding="UTF-8"?>
<svg width="1200" height="600" viewBox="0 0 1200 600" xmlns="http://www.w3.org/2000/svg">
    <path id="Rectangle" fill="#016f53" fill-rule="evenodd" stroke="none" visibility="hidden" d="M 0 600 L 1200 600 L 1200 0 L 0 0 Z"/>
    <g id="Group">
        <g id="noun-azalea-5461003">
            <g id="g1">
                <g id="g2">
                    <g id="g3">
                        <g id="g4">
                            <path id="Path" fill="#ffffff" stroke="none" visibility="hidden" d="M 366.978058 239.777008 C 351.315308 223.393707 323.539032 222.321014 302.166504 232.868073 C 305.653809 208.903564 295.665405 183.040405 275.567657 173.365082 C 274.556549 172.878296 273.379486 172.878296 272.368347 173.365082 C 251.943909 183.197876 242.33754 209.282654 245.769516 232.868073 C 224.066223 222.15802 196.373291 223.652557 180.957977 239.777008 C 180.18248 240.587891 179.818527 241.70816 179.969345 242.819946 C 183.041046 265.498596 205.123047 282.522034 228.344498 286.503815 C 211.391479 303.888672 204.34314 330.684052 214.883926 350.276611 C 215.415665 351.264862 216.36853 351.957367 217.472931 352.157593 C 239.779877 356.210938 262.880737 340.743988 273.968018 319.650238 C 285.276154 341.16214 308.569885 356.132385 330.463074 352.157593 C 331.567139 351.957367 332.519989 351.264862 333.052094 350.276611 C 343.875732 330.158569 336.076599 303.408539 319.591522 286.503815 C 343.52652 282.399597 364.980164 264.868378 367.966675 242.819946 C 368.117126 241.708527 367.753174 240.588257 366.978058 239.777008 Z M 310.832916 280.017853 C 309.286377 280.074615 307.939331 281.091644 307.461426 282.563721 C 306.983154 284.035767 307.475433 285.649811 308.69342 286.604858 C 328.152863 301.861267 335.419495 327.847595 327.364105 345.170837 C 308.227692 347.503967 285.859894 332.343811 277.430969 309.317047 C 276.898865 307.8638 275.516022 306.896942 273.968018 306.896942 C 272.419983 306.896942 271.037537 307.863434 270.505066 309.317047 C 261.99353 332.569122 239.518433 347.478882 220.57193 345.170837 C 212.450165 327.704895 219.935837 301.741425 239.242599 286.604858 C 240.460587 285.649811 240.952881 284.035767 240.474609 282.563721 C 239.996704 281.091644 238.650024 280.074615 237.103104 280.017853 C 212.36055 279.105194 191.232147 262.338745 187.571915 243.607971 C 201.698456 230.460114 228.726151 229.609406 249.044785 243.265411 C 250.329147 244.128296 252.017654 244.098419 253.269577 243.187592 C 254.521851 242.277161 255.072769 240.681549 254.647598 239.192902 C 247.886154 215.497986 257.209686 190.148102 273.968018 180.838593 C 290.831055 190.205994 300.007111 215.648438 293.288422 239.192902 C 292.863617 240.681549 293.414154 242.277161 294.666443 243.187592 C 295.919098 244.098785 297.607605 244.129028 298.891266 243.265411 C 319.398682 229.48291 346.366638 230.579956 360.364105 243.607971 C 356.669952 262.512054 335.356812 279.113281 310.832916 280.017853 Z"/>
                            <path id="path1" fill="#ffffff" stroke="none" visibility="hidden" d="M 294.337524 261.183075 L 277.655548 266.605591 L 277.655548 249.062195 C 277.655548 247.02594 276.004272 245.374664 273.968018 245.374664 C 271.931763 245.374664 270.280487 247.02594 270.280487 249.062195 L 270.280487 266.605591 L 253.598495 261.183075 C 251.663284 260.552887 249.580948 261.613403 248.951859 263.55011 C 248.322021 265.486786 249.381821 267.567291 251.318878 268.196747 L 268.001984 273.619629 L 257.691284 287.811798 C 256.493958 289.459747 256.859375 291.765564 258.506958 292.962524 C 260.154175 294.159515 262.459991 293.795166 263.657684 292.146851 L 273.968018 277.955048 L 284.27832 292.146484 C 285.479004 293.799591 287.786255 294.155823 289.429077 292.962158 C 291.07666 291.765198 291.442078 289.459381 290.244751 287.811432 L 279.934052 273.619263 L 296.617157 268.196381 C 298.554199 267.566925 299.614014 265.48642 298.984161 263.549744 C 298.35434 261.613037 296.271637 260.552521 294.337524 261.183075 Z"/>
                        </g>
                    </g>
                </g>
            </g>
        </g>
    </g>
    <path id="path2" fill="#016f53" stroke="none" d="M 777.778015 254.153992 C 765.942932 238.652313 747.493286 229.662354 728.001831 229.882385 C 713.922729 220.760223 696.998474 217.108673 680.410645 219.601624 C 675.981567 220.276276 671.626038 221.390839 667.416931 222.930725 C 667.592957 218.457703 667.31427 213.98468 666.580994 209.555573 C 663.838501 193.012817 655.126953 178.039032 642.104004 167.464691 C 636.296265 148.853973 622.026428 134.10022 603.636108 127.648956 C 601.201599 126.783661 598.561646 126.783661 596.127258 127.648956 C 577.736572 134.102081 563.466736 148.855499 557.659363 167.464691 C 544.636047 178.038666 535.924622 193.012451 533.182373 209.555573 C 532.449097 213.970062 532.170471 218.457703 532.346436 222.930725 C 528.137329 221.390839 523.781799 220.276276 519.352722 219.601624 C 502.765656 217.093781 485.841431 220.760193 471.761566 229.882385 C 452.270844 229.647736 433.823059 238.652313 421.985352 254.153992 C 420.416107 256.192535 419.609528 258.714874 419.668152 261.296051 C 420.122772 280.786804 429.758179 298.915436 445.670593 310.189972 C 451.698334 325.83844 463.240173 338.744293 478.125763 346.473145 C 482.100189 348.541016 486.279999 350.183594 490.591583 351.415497 C 487.819763 354.935272 485.414612 358.718994 483.405212 362.737366 C 475.911011 377.725769 474.151306 394.957825 478.477539 411.161957 C 472.244446 429.626221 475.104401 449.967743 486.191772 465.995422 C 487.643677 468.121948 489.784882 469.676514 492.263428 470.409851 C 510.933075 475.997589 531.155518 472.433716 546.789001 460.789124 C 563.537109 459.894531 579.39093 452.913452 591.327759 441.136963 C 594.524902 437.998474 597.384827 434.537415 599.877747 430.812256 C 602.370911 434.537354 605.230835 437.998627 608.427734 441.136963 C 620.365662 452.913452 636.219116 459.89447 652.966492 460.789124 C 668.600342 472.433868 688.82428 475.997589 707.492065 470.409851 C 709.970581 469.676605 712.111938 468.122009 713.563721 465.995422 C 724.65094 449.965881 727.510681 429.639038 721.277954 411.161957 C 725.604187 394.95636 723.844421 377.738922 716.350281 362.737366 C 714.341064 358.733612 711.935791 354.935272 709.16394 351.415497 C 713.475525 350.198242 717.655273 348.541016 721.629761 346.473145 C 736.51532 338.744293 748.057556 325.83844 754.0849 310.189972 C 769.997314 298.912079 779.63269 280.785309 780.087341 261.296051 C 780.145996 258.714874 779.339355 256.192291 777.770142 254.153992 Z M 648.002441 284.482635 C 652.622253 285.230591 656.728455 287.870422 659.338928 291.771515 C 661.934753 295.672699 662.7854 300.48291 661.700134 305.044189 C 660.60022 309.605042 657.667114 313.506256 653.575134 315.79422 C 649.49823 318.096741 644.629089 318.580719 640.170715 317.158142 L 618.113464 309.98642 L 631.767212 291.214264 L 631.752502 291.214264 C 635.433594 286.051941 641.740051 283.426819 648.002075 284.482574 Z M 637.897766 368.210175 C 632.779358 371.935303 626.003723 372.463196 620.357422 369.603394 C 614.711182 366.728943 611.162109 360.935913 611.147461 354.61499 L 611.147461 331.399078 L 633.204712 338.570801 C 639.232422 340.536011 643.66156 345.71286 644.644104 351.960571 C 645.626709 358.222961 643.030884 364.514648 637.897766 368.23941 Z M 555.401672 213.223602 C 557.39624 201.183136 564.083801 190.433105 573.997742 183.349609 C 576.226929 181.765686 577.81073 179.433746 578.441467 176.793976 C 581.301331 165.252136 589.162292 155.587463 599.88269 150.439758 C 610.603455 155.587463 618.464111 165.252136 621.323853 176.793976 C 621.954468 179.433777 623.53833 181.765625 625.767578 183.349609 C 635.681519 190.433105 642.369324 201.183136 644.363647 213.223602 C 646.284851 225.014771 643.366394 237.084869 636.268372 246.690948 L 634.43512 249.228088 L 634.420471 249.21347 C 627.52771 236.586182 614.284302 228.740173 599.88269 228.740173 C 585.495728 228.740173 572.25238 236.586182 565.344971 249.21347 L 563.51178 246.690918 C 556.413635 237.084869 553.480286 225.015106 555.401428 213.223572 Z M 568.028992 291.22937 L 581.653381 310.001526 L 559.581482 317.173187 C 553.553772 319.123749 546.954224 317.525177 542.481201 313.037354 C 538.008179 308.564301 536.424194 301.950134 538.389648 295.922394 C 540.340149 289.909302 545.517029 285.495209 551.764771 284.497681 C 558.027161 283.515045 564.303833 286.110901 568.028992 291.243988 Z M 488.480133 326.471039 C 477.65686 320.854065 469.487976 311.174774 465.806763 299.559296 C 465.000153 296.948792 463.284271 294.7341 460.966919 293.311584 C 450.876892 287.019897 444.101257 276.563416 442.531921 264.771881 C 450.730103 256.162994 462.359802 251.675323 474.20993 252.526093 C 476.937744 252.731415 479.6362 251.954132 481.821259 250.326202 C 491.632721 243.081299 503.922455 240.045441 515.977966 241.878723 C 527.783752 243.682648 538.357727 250.179413 545.2948 259.888367 L 547.127991 262.425537 C 532.990295 265.094696 521.433411 275.258179 516.975403 288.941193 C 512.531677 302.638855 515.904785 317.656555 525.789673 328.129944 L 522.812561 329.097839 C 511.476044 332.881592 499.098053 331.942963 488.480164 326.472687 Z M 588.618286 393.30365 C 588.706238 405.241638 583.983765 416.710266 575.507019 425.113831 C 566.824951 433.678406 555.092346 438.445007 542.90509 438.356812 C 540.177246 438.327454 537.522705 439.280762 535.454773 441.055298 C 526.361938 448.710938 514.336121 451.907837 502.647461 449.766663 C 496.986542 439.309875 496.311859 426.858704 500.784943 415.844696 C 501.826172 413.322144 501.914185 410.520905 501.04892 407.939758 C 497.191986 396.368591 498.101074 383.741302 503.556763 372.829834 C 508.939087 362.167969 518.383728 354.13089 529.764526 350.537903 L 532.741699 349.569946 C 530.908508 363.839813 537.009338 377.977478 548.639465 386.424927 C 560.28418 394.887024 575.609741 396.324249 588.616638 390.179382 Z M 588.618286 354.588013 C 588.618286 360.923584 585.069153 366.716675 579.422913 369.605713 C 573.776611 372.480194 567.000977 371.952209 561.867981 368.227112 C 556.749512 364.502014 554.139099 358.210266 555.136292 351.962921 C 556.118896 345.700562 560.533264 340.52356 566.560974 338.573151 L 588.618286 331.401428 Z M 599.881531 296.747253 L 586.227844 277.975128 C 582.532043 272.842041 582.004089 266.066437 584.893188 260.434784 C 587.767761 254.803131 593.575317 251.254089 599.896301 251.254089 C 606.231873 251.268738 612.024963 254.817871 614.884705 260.46405 C 617.759216 266.095703 617.231262 272.871338 613.506165 278.004395 Z M 697.143799 449.785278 L 697.143799 449.77063 C 685.440491 451.911804 673.400024 448.714661 664.30719 441.059204 C 662.239319 439.284637 659.584839 438.33139 656.856873 438.360718 C 644.669617 438.44873 632.937012 433.69696 624.254944 425.117737 C 615.778198 416.714172 611.055847 405.245544 611.143677 393.307556 L 611.143677 390.183777 C 624.152039 396.343292 639.492615 394.906067 651.135864 386.444031 C 662.780579 377.981903 668.881531 363.844238 667.03363 349.559753 L 670.010803 350.52771 C 681.391174 354.135468 690.836243 362.172424 696.218567 372.834259 C 701.674133 383.730713 702.583435 396.358032 698.72644 407.929565 C 697.861145 410.510712 697.949158 413.326538 698.990417 415.849121 C 703.46344 426.863129 702.788757 439.314331 697.142517 449.771149 Z M 738.79541 293.30069 C 736.47821 294.737915 734.747742 296.952484 733.940918 299.56308 C 730.259827 311.178528 722.091187 320.872467 711.267578 326.474823 C 700.649658 331.930359 688.286316 332.883636 676.949829 329.100006 L 673.972656 328.13205 L 673.987366 328.13205 C 683.857361 317.660583 687.230347 302.642853 682.786987 288.958344 C 678.343262 275.260712 666.772095 265.097046 652.634399 262.42807 L 654.467651 259.8909 L 654.467651 259.905548 C 661.419312 250.19696 671.978638 243.699921 683.784485 241.881317 C 695.839539 240.048096 708.1297 243.083862 717.941101 250.328766 C 720.126282 251.956635 722.839539 252.748596 725.55249 252.528625 C 737.417236 251.678009 749.032288 256.165741 757.245117 264.774445 C 755.661255 276.565613 748.900146 287.022461 738.795471 293.299469 Z"/>
</svg>
